<?xml version="1.0" standalone="no"?><!DOCTYPE svg PUBLIC "-//W3C//DTD SVG 1.1//EN" "http://www.w3.org/Graphics/SVG/1.1/DTD/svg11.dtd"><svg t="1656910049436" class="icon" viewBox="0 0 1024 1024" version="1.1" xmlns="http://www.w3.org/2000/svg" p-id="1808" xmlns:xlink="http://www.w3.org/1999/xlink" width="200" height="200"><defs><style type="text/css">@font-face { font-family: feedback-iconfont; src: url("//at.alicdn.com/t/font_1031158_u69w8yhxdu.woff2?t=1630033759944") format("woff2"), url("//at.alicdn.com/t/font_1031158_u69w8yhxdu.woff?t=1630033759944") format("woff"), url("//at.alicdn.com/t/font_1031158_u69w8yhxdu.ttf?t=1630033759944") format("truetype"); }
</style></defs><path d="M741.376 116.736c0 8.192-3.072 16.384-9.216 22.528L358.912 512l372.736 372.736c6.144 6.144 9.216 13.824 9.216 22.528 0 8.192-3.072 16.384-9.216 22.528-12.288 12.288-32.256 12.288-44.544 0L291.84 534.528c-6.144-6.144-9.216-13.824-9.216-22.528 0-8.192 3.072-16.384 9.216-22.528l395.264-395.264c12.288-12.288 32.256-12.288 44.544 0 6.144 6.144 9.728 14.336 9.728 22.528z" p-id="1809"></path></svg>